<?xml version="1.0" encoding="UTF-8"?>
<svg id="Logo" xmlns="http://www.w3.org/2000/svg" viewBox="0 0 1979.27 1979.27">
  <path d="M1851.34,231.35h-77.61c-164.58,0-317.94,118.67-363.03,280.91l-218.3,785.46c-54.71,195.84-164.02,291.16-327.95,285.93-56.59-2.22-98.77-18.66-126.49-49.32-27.75-30.66-40.52-73.64-38.28-128.97.62-33.62,5.19-69.15,13.7-106.53L1003.03,252.03c2.99-10.82-4.28-20.68-15.25-20.68h-263.9l-433.93-29.89c-68.26,0-123.59,55.33-123.59,123.59h0c0,60.16,43.32,111.58,102.61,121.8l213.31,66.42c20.55,2.06,35.81,19.98,34.56,40.59-1.29,21.26-19.6,37.42-40.85,36.05l-146.45-26.41c-34.15-2.64-64.4,21.9-68.86,55.86h0c-4.01,30.55,14.16,59.67,43.37,69.48l136,49.72c18.81,5.32,30.44,24.12,26.79,43.32-3.52,18.54-20.19,31.63-39.04,30.64l-71.12-21.28c-37.54-4.77-72.13,20.99-78.31,58.32h0c-4.41,26.63,6.8,53.44,28.86,69.01l65.69,43.93c19.8,10.74,31.77,31.28,31.97,53.21l-78.25,281.46c-25.75,114.32-22.69,216.14,9.22,305.42,31.88,89.28,88.94,158.4,171.16,207.34,82.22,48.96,182.65,74.52,301.29,76.76,191.09,2.99,355.31-48.55,492.73-154.66,137.41-106.09,229.11-251.42,275.13-435.97L1866.59,252.05c3.01-10.82-4.26-20.7-15.24-20.7Z"/>
</svg>