<?xml version="1.0" encoding="UTF-8"?>
<svg id="Logo" xmlns="http://www.w3.org/2000/svg" viewBox="0 0 4823.5 1037.75">
  <defs>
    <style>
      .cls-1 {
        fill: #f1f2f2;
      }
    </style>
  </defs>
  <g>
    <path class="cls-1" d="M3614.44,822.9c-1.19-6.13-1.75-13.05-1.67-20.76.05-5.38-6.17-7.88-10.47-4.19-30.71,26.33-64.77,39-102.18,38.03-38.55-.55-69.35-13.43-92.41-38.63-23.05-25.21-32.04-55.77-26.97-91.67,5.96-48.22,29.63-85.3,70.98-111.19,41.35-25.9,95.7-38.85,163.05-38.85l39.67.72c3.14.06,6.08-2.15,6.98-5.23l5.64-19.27c.07-.25.13-.51.18-.77l3.58-20.89c.05-.28.08-.56.09-.84,1.13-24.56-10.12-37.26-33.71-38.08-28.01-.52-47.24,14.08-57.67,43.79-1.01,2.88-3.77,4.91-6.75,4.92l-123.44.37c-3.81.01-6.53-3.25-5.81-7.05,5.05-26.84,16.86-50.38,35.42-70.62,20.17-22,46.36-38.95,78.56-50.84,32.2-11.89,65.8-17.43,100.76-16.61,33.6.82,62.42,7.87,86.48,21.14,24.05,13.27,41.25,31.75,51.58,55.41,10.31,23.61,12.5,50.83,6.6,81.66-.03.15-.06.3-.1.44l-53.1,208.45c-.04.17-.08.33-.11.5l-4.43,25.2c-2.93,19.6-2.14,36.37,2.4,50.33.3.91.39,1.9.24,2.89l-.02.14c-.51,3.45-3.62,6.15-7.07,6.15h-120.53c-2.87,0-5.25-1.88-5.78-4.64ZM3546.85,737.98c27.06,1.08,52.06-10.67,74.97-35.24.79-.84,1.36-1.86,1.67-2.95l17.74-62.18c1.13-3.97-1.53-7.65-5.57-7.7l-27.14-.32c-21.68.55-40.91,6.92-57.67,19.09-16.77,12.18-27.52,28.8-32.27,49.87-2.45,11.22-1.21,20.46,3.71,27.71,4.92,7.26,13.11,11.15,24.56,11.7Z"/>
    <path class="cls-1" d="M4261.83,606.22c-15.37,71.93-41.98,128.55-79.88,169.86-37.89,41.31-84.42,61.26-139.59,59.9-39.54-.99-69.44-16.03-89.71-45.15-2.77-3.98-9.16-2.95-11.35,1.82l-14.03,30.61c-1.18,2.57-3.78,4.28-6.51,4.28h-110.11c-4.03,0-6.74-3.63-5.67-7.6l166.37-617.8c.84-3.11,3.75-5.38,6.91-5.38h121.76c4.09,0,6.8,3.73,5.63,7.74l-57.31,196.03c-1.75,5.98,4.83,10.13,9.9,6.25,28.11-21.5,57.61-32.02,88.49-31.56,43.47.55,75.93,16.07,97.39,46.57,21.45,30.5,30.36,72,26.72,124.52-1.41,17.51-3.72,34.61-6.96,51.29l-2.05,8.62ZM4128.33,597.9c3.78-16.64,6.52-32.47,8.23-47.48,4.19-43.93-9.36-66.85-40.67-68.77-27.35-1.08-51.53,10.38-72.53,34.35-.72.82-1.24,1.8-1.52,2.82l-47.98,173.46c-.34,1.23-.32,2.49.04,3.65,6.74,21.45,24.06,32.44,51.99,32.97,43.94,1.38,74.47-27.28,91.57-85.97l9.18-36.24c.03-.13.06-.26.09-.39l1.6-8.4Z"/>
    <path class="cls-1" d="M4528.05,700.58c5.28-18.12-7.39-31.71-37.99-40.77l-28.46-7.39c-46.43-12.59-79.66-30.25-99.67-52.97-20.01-22.72-27.83-49.7-23.48-80.91,5.44-42.71,27.71-77.41,66.81-104.1,39.09-26.69,84.91-39.77,137.42-39.22,52.23.55,93.32,13.84,123.29,39.86,28.4,24.66,41.69,57.44,39.89,98.33-.16,3.72-3.44,6.84-7.16,6.82l-121.46-.37c-3.5-.01-6.09-2.8-5.86-6.3,2.05-30.79-11.96-46.19-42.01-46.19-13.69,0-26.81,4.04-39.35,12.1-12.54,8.06-20.54,18.79-24.01,32.17-6.77,22.14,11.36,37.3,54.39,45.5,37.18,9.03,65.62,19.51,85.29,31.41,19.67,11.91,34.14,26.63,43.42,44.15,9.28,17.52,12.33,38.6,9.16,63.24-3.39,26.83-14.44,50.79-33.15,71.87-18.71,21.08-44.48,37.91-77.3,50.51-32.82,12.58-67.67,18.46-104.55,17.65-32.01-.27-61.14-6.98-87.4-20.11-26.26-13.14-46.05-31-59.35-53.57-12.26-20.78-17.92-44.4-16.98-70.86.13-3.75,3.43-6.9,7.18-6.88l112.61.74c3.39.02,5.95,2.65,5.85,6.03-.99,35.52,16.98,53.01,53.88,52.49,16.69,0,31.29-3.77,43.78-11.33,12.49-7.54,20.9-18.19,25.23-31.92Z"/>
    <path class="cls-1" d="M3331.02,716.57h-228.09c-4.03,0-6.74-3.63-5.67-7.6l126.97-471.51c1.07-3.97-1.64-7.6-5.67-7.6h-90.22l-174.78-1.29c-24.95,1.53-43.93,23-42.39,47.94,1.35,21.99,18.34,39.81,40.23,42.21l79.45,19.49c7.56.29,13.53,6.5,13.54,14.06,0,7.8-6.32,14.12-14.12,14.09l-54.12-6.36c-12.54-.2-23.04,9.45-23.91,21.96-.78,11.26,6.52,21.49,17.41,24.42l50.82,15.12c5.47,1.19,9.51,5.5,10.58,10.73l-3.21,11.94c-2.52,2.83-6.16,4.6-10.19,4.64l-26.47-6.18c-13.83-.9-25.89,9.29-27.31,23.07-1.01,9.83,3.68,19.38,12.1,24.57l24.99,14.58c3.54,1.65,6.47,4.14,8.66,7.15l-82.72,307.95c-1.07,3.97,1.64,7.6,5.67,7.6h370.81c3.16,0,6.07-2.27,6.91-5.38l26.4-97.99c1.07-3.97-1.64-7.6-5.67-7.6Z"/>
  </g>
  <g>
    <path class="cls-1" d="M903.1,390.66l-6.53,23.89c-1.69,6.2,5.41,10.17,10.35,5.79,35.5-31.46,74.88-46.72,118.17-45.77,40.99.82,70.12,16.08,87.4,45.79,17.26,29.67,20.55,72.09,9.84,127.28-.03.15-.07.31-.11.46l-72.03,274.02c-.82,3.13-3.75,5.42-6.92,5.42h-122.35c-4.01,0-6.72-3.61-5.68-7.57l71.97-272.81c.03-.13.06-.25.09-.38,1.98-9.51,3.08-18.2,3.29-26.1.56-26.02-13.53-39.03-42.27-39.03-23.26-.54-45.55,9.54-66.89,30.23-.94.91-1.61,2.06-1.94,3.28l-83.47,307.01c-.84,3.1-3.75,5.36-6.9,5.36h-121.95c-4.03,0-6.74-3.63-5.67-7.6l116.12-431.16c.84-3.1,3.74-5.37,6.89-5.38l112.9-.36c4.05-.01,6.77,3.64,5.68,7.63Z"/>
    <path class="cls-1" d="M1366.16,409.78c-1.8,6.19,5.25,10.3,10.25,5.97,32.14-27.91,66.62-41.64,103.4-41.17,44.52,1.1,76.02,17.39,94.51,48.87,18.46,31.45,22.13,74.09,11.01,127.94-.03.13-.06.25-.09.38l-70.87,270.35c-.82,3.13-3.75,5.42-6.92,5.42h-121.94c-4.01,0-6.72-3.6-5.68-7.56l70.93-270.14c1.98-9.31,3.09-18.07,3.33-26.29.67-27.1-13.05-41.07-41.17-41.9-23.66-.53-45.57,7.88-65.75,25.23-1.1.94-1.88,2.2-2.25,3.56l-85.11,311.74c-.85,3.1-3.75,5.36-6.9,5.36h-121.95c-4.03,0-6.74-3.63-5.67-7.6l166.37-617.8c.84-3.11,3.75-5.38,6.91-5.38h121.77c4.08,0,6.8,3.73,5.63,7.74l-59.79,205.28Z"/>
    <path class="cls-1" d="M1840.22,822.9c-1.19-6.13-1.75-13.05-1.67-20.76.05-5.38-6.17-7.88-10.47-4.19-30.71,26.33-64.77,39-102.18,38.03-38.55-.55-69.35-13.43-92.41-38.63-23.05-25.21-32.04-55.77-26.97-91.67,5.96-48.22,29.63-85.3,70.98-111.19,41.35-25.9,95.7-38.85,163.05-38.85l39.67.72c3.14.06,6.08-2.15,6.98-5.23l5.64-19.27c.07-.25.13-.51.18-.77l3.58-20.89c.05-.28.08-.56.09-.84,1.13-24.56-10.12-37.26-33.71-38.08-28.01-.52-47.24,14.08-57.67,43.79-1.01,2.88-3.77,4.91-6.75,4.92l-123.44.37c-3.81.01-6.53-3.25-5.81-7.05,5.05-26.84,16.86-50.38,35.42-70.62,20.17-22,46.36-38.95,78.56-50.84,32.2-11.89,65.8-17.43,100.76-16.61,33.6.82,62.42,7.87,86.48,21.14,24.05,13.27,41.25,31.75,51.58,55.41,10.31,23.61,12.5,50.83,6.6,81.66-.03.15-.06.3-.1.44l-53.1,208.45c-.04.17-.08.33-.11.5l-4.43,25.2c-2.93,19.6-2.14,36.37,2.4,50.33.3.91.39,1.9.24,2.89l-.02.14c-.51,3.45-3.62,6.15-7.07,6.15h-120.53c-2.87,0-5.25-1.88-5.78-4.64ZM1772.63,737.98c27.06,1.08,52.06-10.67,74.97-35.24.79-.84,1.36-1.86,1.67-2.95l17.74-62.18c1.13-3.97-1.53-7.65-5.57-7.7l-27.14-.32c-21.68.55-40.91,6.92-57.67,19.09-16.77,12.18-27.52,28.8-32.27,49.87-2.45,11.22-1.21,20.46,3.71,27.71,4.92,7.26,13.11,11.15,24.56,11.7Z"/>
    <path class="cls-1" d="M2290.6,700.58c5.28-18.12-7.39-31.71-37.99-40.77l-28.46-7.39c-46.43-12.59-79.66-30.25-99.67-52.97-20.01-22.72-27.83-49.7-23.48-80.91,5.44-42.71,27.71-77.41,66.81-104.1,39.09-26.69,84.91-39.77,137.42-39.22,52.23.55,93.32,13.84,123.29,39.86,28.4,24.66,41.69,57.44,39.89,98.33-.16,3.72-3.44,6.84-7.16,6.82l-121.46-.37c-3.5-.01-6.09-2.8-5.86-6.3,2.05-30.79-11.96-46.19-42.01-46.19-13.69,0-26.81,4.04-39.35,12.1-12.54,8.06-20.54,18.79-24.01,32.17-6.77,22.14,11.36,37.3,54.39,45.5,37.18,9.03,65.62,19.51,85.29,31.41,19.67,11.91,34.14,26.63,43.42,44.15,9.28,17.52,12.33,38.6,9.16,63.24-3.39,26.83-14.44,50.79-33.15,71.87-18.71,21.08-44.48,37.91-77.3,50.51-32.82,12.58-67.67,18.46-104.55,17.65-32.01-.27-61.14-6.98-87.4-20.11-26.26-13.14-46.05-31-59.35-53.57-12.26-20.78-17.92-44.4-16.98-70.86.13-3.75,3.43-6.9,7.18-6.88l112.61.74c3.39.02,5.95,2.65,5.85,6.03-.99,35.52,16.98,53.01,53.88,52.49,16.69,0,31.29-3.77,43.78-11.33,12.49-7.54,20.9-18.19,25.23-31.92Z"/>
    <path class="cls-1" d="M2689.72,409.78c-1.8,6.19,5.25,10.3,10.25,5.97,32.14-27.91,66.62-41.64,103.4-41.17,44.52,1.1,76.02,17.39,94.51,48.87,18.46,31.45,22.13,74.09,11.01,127.94-.03.13-.06.25-.09.38l-70.87,270.35c-.82,3.13-3.75,5.42-6.92,5.42h-121.94c-4.01,0-6.72-3.6-5.68-7.56l70.93-270.14c1.98-9.31,3.09-18.07,3.33-26.29.67-27.1-13.05-41.07-41.17-41.9-23.66-.53-45.57,7.88-65.75,25.23-1.1.94-1.88,2.2-2.25,3.56l-85.11,311.74c-.85,3.1-3.75,5.36-6.9,5.36h-121.95c-4.03,0-6.74-3.63-5.67-7.6l166.37-617.8c.84-3.11,3.75-5.38,6.91-5.38h121.77c4.08,0,6.8,3.73,5.63,7.74l-59.79,205.28Z"/>
    <path class="cls-1" d="M740.55,229.88h-28.42c-60.26,0-116.41,43.45-132.92,102.86l-79.93,287.6c-20.03,71.71-60.05,106.61-120.08,104.69-20.72-.81-36.16-6.83-46.31-18.06-10.16-11.22-14.83-26.96-14.01-47.22.23-12.31,1.9-25.32,5.02-39.01l106.05-383.29c1.1-3.96-1.57-7.57-5.58-7.57h-96.63l-158.89-10.94c-24.99,0-45.25,20.26-45.25,45.25h0c0,22.03,15.86,40.86,37.57,44.6l78.11,24.32c7.52.75,13.11,7.32,12.65,14.86-.47,7.78-7.18,13.7-14.96,13.2l-53.63-9.67c-12.5-.97-23.58,8.02-25.21,20.46h0c-1.47,11.19,5.19,21.85,15.88,25.44l49.8,18.2c6.89,1.95,11.14,8.83,9.81,15.86-1.29,6.79-7.39,11.58-14.29,11.22l-26.04-7.79c-13.74-1.75-26.41,7.69-28.67,21.36h0c-1.62,9.75,2.49,19.57,10.57,25.27l24.05,16.09c7.25,3.93,11.63,11.45,11.71,19.48l-28.65,103.06c-9.43,41.86-8.31,79.14,3.38,111.83,11.67,32.69,32.57,58,62.67,75.92,30.1,17.93,66.88,27.29,110.32,28.11,69.97,1.1,130.1-17.78,180.41-56.63,50.31-38.85,83.89-92.06,100.74-159.63l106.34-382.27c1.1-3.96-1.56-7.58-5.58-7.58Z"/>
  </g>
</svg>